<?xml version="1.0" encoding="utf-8"?>
<!-- Generator: Adobe Illustrator 16.0.0, SVG Export Plug-In . SVG Version: 6.00 Build 0)  -->
<!DOCTYPE svg PUBLIC "-//W3C//DTD SVG 1.1//EN" "http://www.w3.org/Graphics/SVG/1.1/DTD/svg11.dtd">
<svg version="1.1" id="Layer_1" xmlns="http://www.w3.org/2000/svg" xmlns:xlink="http://www.w3.org/1999/xlink" x="0px" y="0px"
	 width="512px" height="512px" viewBox="0 0 512 512" enable-background="new 0 0 512 512" xml:space="preserve">
<ellipse fill="none" stroke="#FFFFFF" stroke-width="20" stroke-miterlimit="10" cx="256" cy="256" rx="242.5" ry="244.517"/>
<path fill="#FFFFFF" d="M117.141,250.453l246.827-95.168c11.456-4.139,21.462,2.795,17.75,20.118l0.021-0.021l-42.026,197.995
	c-3.114,14.037-11.456,17.45-23.125,10.837l-64-47.168l-30.87,29.739c-3.413,3.413-6.293,6.293-12.907,6.293l4.544-65.13
	L331.968,200.79c5.163-4.544-1.149-7.104-7.957-2.581l-146.582,92.288l-63.189-19.712
	C100.523,266.432,100.224,257.066,117.141,250.453L117.141,250.453z"/>
</svg>
