<?xml version="1.0" encoding="utf-8"?>
<!-- Generator: Adobe Illustrator 16.0.0, SVG Export Plug-In . SVG Version: 6.00 Build 0)  -->
<!DOCTYPE svg PUBLIC "-//W3C//DTD SVG 1.1//EN" "http://www.w3.org/Graphics/SVG/1.1/DTD/svg11.dtd">
<svg version="1.1" id="Layer_1" xmlns="http://www.w3.org/2000/svg" xmlns:xlink="http://www.w3.org/1999/xlink" x="0px" y="0px"
	 width="512px" height="512px" viewBox="0 0 512 512" enable-background="new 0 0 512 512" xml:space="preserve">
<ellipse fill="none" stroke="#CBCFD5" stroke-width="36" stroke-miterlimit="10" cx="256" cy="256" rx="235.574" ry="237.533"/>
<path fill="#CBCFD5" d="M108.141,247.453l246.827-95.168c11.456-4.139,21.462,2.795,17.75,20.118l0.021-0.021l-42.026,197.995
	c-3.114,14.037-11.456,17.45-23.125,10.837l-64-47.168l-30.87,29.739c-3.413,3.413-6.293,6.293-12.907,6.293l4.544-65.13
	L322.968,197.79c5.163-4.544-1.15-7.104-7.957-2.581l-146.582,92.288l-63.189-19.712C91.523,263.432,91.224,254.066,108.141,247.453
	L108.141,247.453z"/>
</svg>
