<?xml version="1.0" encoding="utf-8"?>
<!-- Generator: Adobe Illustrator 16.0.0, SVG Export Plug-In . SVG Version: 6.00 Build 0)  -->
<!DOCTYPE svg PUBLIC "-//W3C//DTD SVG 1.1//EN" "http://www.w3.org/Graphics/SVG/1.1/DTD/svg11.dtd">
<svg version="1.1" id="Layer_1" xmlns="http://www.w3.org/2000/svg" xmlns:xlink="http://www.w3.org/1999/xlink" x="0px" y="0px"
	 width="16px" height="16px" viewBox="0 0 16 16" enable-background="new 0 0 16 16" xml:space="preserve">
<ellipse fill="none" stroke="#FFFFFF" stroke-width="0.75" stroke-miterlimit="10" cx="8" cy="8" rx="7.576" ry="7.639"/>
<path fill="#FFFFFF" d="M3.662,7.827l7.711-2.974c0.358-0.129,0.672,0.088,0.555,0.628l0,0l-1.313,6.187
	c-0.097,0.438-0.357,0.545-0.723,0.337l-1.999-1.473l-0.965,0.929c-0.106,0.106-0.196,0.196-0.403,0.196l0.142-2.035l3.707-3.347
	c0.161-0.143-0.036-0.222-0.25-0.081L5.545,9.077L3.571,8.462C3.143,8.326,3.133,8.033,3.662,7.827L3.662,7.827z"/>
</svg>
